<svg width="24" height="24" viewBox="0 0 24 24" fill="none" xmlns="http://www.w3.org/2000/svg">
<path d="M4.098 19.902C4.44623 20.2503 4.85967 20.5266 5.31471 20.7152C5.76974 20.9037 6.25746 21.0007 6.75 21.0007M4.098 19.902C4.80126 20.6053 5.75544 21.0007 6.75 21.0007M4.098 19.902C3.39474 19.1987 3 18.2446 3 17.25V4.125C3 3.504 3.504 3 4.125 3H9.375C9.996 3 10.5 3.504 10.5 4.125V8.197M6.75 21.0007C7.24254 21.0007 7.73026 20.9037 8.18529 20.7152C8.64033 20.5266 9.05377 20.2503 9.402 19.902M6.75 21.0007C7.74456 21.0007 8.69874 20.6053 9.402 19.902M6.75 21.0007L19.875 21C20.496 21 21 20.496 21 19.875V14.625C21 14.004 20.496 13.5 19.875 13.5H15.803M9.402 19.902L15.803 13.5M9.402 19.902C10.1053 19.1987 10.5 18.2446 10.5 17.25V8.197M15.803 13.5L18.682 10.62C19.122 10.182 19.122 9.47 18.682 9.03L14.97 5.317C14.53 4.878 13.818 4.878 13.38 5.317L10.5 8.197M6.75 17.25H6.758V17.258H6.75V17.25Z" stroke="white" stroke-width="1.5" stroke-linecap="round" stroke-linejoin="round"/>
</svg>
